<svg width="28" height="28" fill="none" xmlns="http://www.w3.org/2000/svg"><path d="M7 22H5s-2-2.253-2-4v-4h17v4c0 1.747-2 4-2 4h-2m-9 0l-2 2m2-2h9m0 0l2 2" stroke="#EE7708" stroke-width="2" stroke-linecap="round" stroke-linejoin="round"/><path d="M24 24V7v0a3 3 0 00-3-3h-1a3 3 0 00-3 3v0" stroke="#EE7708" stroke-width="2" stroke-linecap="round" stroke-linejoin="round"/><path d="M15 8h4l-2-2-2 2zM4 13H3m7 1v-3m-3 3v-4" stroke="#EE7708" stroke-width="2" stroke-linecap="round" stroke-linejoin="round"/></svg>