<svg width="28" height="28" fill="none" xmlns="http://www.w3.org/2000/svg"><path d="M14 24c5.523 0 10-4.068 10-9.087 0-3.79-.424-6.035-1.171-8.883a.718.718 0 00-1.128-.389l-1.341 1.01-2.193 1.651A10.814 10.814 0 0014 7.478c-1.487 0-2.898.295-4.167.824L6.3 5.642a.718.718 0 00-1.128.388C4.424 8.878 4 11.123 4 14.913 4 19.932 8.477 24 14 24z" stroke="#EE7708" stroke-width="2"/><ellipse cx="9.716" cy="14.501" rx="1.429" ry="1.462" fill="#EE7708"/><path d="M15.428 16.32c0 .807-.64 1.461-1.428 1.461-.79 0-1.429-.654-1.429-1.461s.64 0 1.429 0 1.428-.807 1.428 0z" fill="#EE7708"/><ellipse cx="18.286" cy="14.501" rx="1.429" ry="1.462" fill="#EE7708"/><path d="M18.294 18.155a.722.722 0 10-1.445 0h1.445zm-2.865 1.461l-.145.708.145-.708zm1.42-1.461c0 .073-.08.297-.395.518-.295.207-.63.287-.88.235l-.29 1.416c.736.15 1.471-.097 2.001-.469.511-.359 1.009-.966 1.009-1.7h-1.445zm-1.276.753c-.221-.045-.428-.207-.597-.511a2.127 2.127 0 01-.254-.973h-1.444c0 .518.137 1.137.434 1.673.3.54.807 1.07 1.572 1.227l.29-1.416z" fill="#EE7708"/><path d="M12.572 19.616l.145.708-.145-.708zm-1.42-1.461a.723.723 0 00-1.446 0h1.445zm2.126-.731c0 .29-.084.665-.254.973-.169.304-.376.466-.597.511l.29 1.416c.764-.156 1.272-.687 1.57-1.227a3.57 3.57 0 00.436-1.673h-1.445zm-.851 1.484c-.25.051-.586-.028-.881-.235-.314-.22-.395-.445-.395-.518H9.706c0 .734.498 1.341 1.01 1.7.529.372 1.264.62 2 .47l-.29-1.417z" fill="#EE7708"/></svg>