<svg width="48" height="48" fill="none" xmlns="http://www.w3.org/2000/svg"><rect width="48" height="48" rx="24" fill="#1D3670"/><path d="M29.34 23.037l-4.752-2.492a1.26 1.26 0 00-1.176 0l-4.752 2.492a1 1 0 00-.535.858l-.118 4.295a.784.784 0 00.125.469c.442.648 2.056 2.54 5.868 2.54 3.812 0 5.426-1.892 5.868-2.54a.784.784 0 00.125-.469l-.118-4.295a1 1 0 00-.535-.858z" fill="#fff"/><path d="M24.224 16.353L24 16.24l-.223.112-10.8 5.4-.895.447.895.447 10.8 5.4.223.112.224-.112 10.8-5.4.894-.447-.894-.447-10.8-5.4z" fill="#fff" stroke="#1D3670"/><path fill="#fff" d="M14.4 21.6h1.2V30h-1.2z"/></svg>