<svg width="231" height="48" fill="none" xmlns="http://www.w3.org/2000/svg"><path d="M29.885 35.17c5.65 5.03 21.088 1.42 16.92-4.804.36 5.908-11.568 8.562-16.92 4.804z" fill="#F47216"/><path d="M36.615 31.112c.36-.057 9.208-2.392 6.603 2.159 3.944-2.282.166-5.044-6.603-2.16zm-3.656 6.609c6.419 3.09 15.625 1.282 15.176-3.001-4.044 5.407-12.899 3.865-15.176 3.001z" fill="#F47216"/><path fill-rule="evenodd" clip-rule="evenodd" d="M23.852 13.827c-.159 1.815 2.262 3.589 1.905 5.224.807-1.637-1.489-3.41-1.288-5.13.14-1.193 1.02-1.648.528-2.943-.433-1.143-.344-1.8.078-2.93.465-1.243-.285-2.616-.283-3.789.001-1.148.528-2.305 1.358-1.97 1.413.572 4.727 8.093 6.113 11.63 1.342 3.421.624 5.322.562 5.306-.008.016 1.478-1.635.019-5.501-.831-2.195-3.934-10.513-6.168-12.254-1.043-.811-2.984-.391-2.858 2.939.042 1.122.805 2.475.416 3.41-.741 1.783-.246 2.5.024 3.33.308.95-.305 1.5-.406 2.678z" fill="#1F3B87"/><path d="M38.163 22.254a.817.817 0 01.178.403c1.066-.5 2.453-.813 4.235-.625-.215-.138-2.415-.57-4.413.222z" fill="#F47216"/><path fill-rule="evenodd" clip-rule="evenodd" d="M35.967 20.986c-.328-.195-.602.154-.304.41.325.277.711-.168.304-.41z" fill="#1F3B87"/><path fill-rule="evenodd" clip-rule="evenodd" d="M38.347 22.823a.806.806 0 00-.282-.673c-.615-.563-.492-.923-.936-1.837-.527-1.086-1.8-1.823-3.136-1.056-1.26.658-1.661 1.38-3.968 1.388-3.31.014-6.4-2.663-9.361-5.659-3.024-3.042-6.37-7.426-9.85-11.053C9.823 2.901 8.078.912 6.46 1.365c-.89.249-1.163 1.182-1.166 1.921-.01 2.546 1.297 4.792 1.477 5.115.181.323.283.554.182 1.33-.16 1.22.348 2.496 1.052 3.19.51.501.204.655.214 1.266.025 1.71 2.37 2.492 3.16 2.955.787.464.494 1.041.76 2.249.269 1.207 2.266 2.403 3.415 2.92 1.19.529 2.196.98 2.93 1.497 1.325.909 1.91 1.805 1.963 1.923.163.376.84 1.85-3.644 3.77-1.663.713-6.543 1.964-7.784 3.605-.371.492-.685 1.561.447 2.28.794.412 1.038.477 1.196.82.265.573.91 1.465 1.44 1.844 1.443 1.039 2.373.268 4.142.157 1.198-.075 1.873 1.93 3.674.66.573-.404 1.893-1.392 2.894-1.608.523-.135 2.196-.016 2.79-1.228.427-.873 1.727-.25 2.094-1.103.557-1.297-1.43-3.177-1.43-3.177s.427.548.845 1.378c.205.407.476 1.066.198 1.543-.275.475-1.484 0-2.157.933-.59.798-1.283.737-2.525.918-1.144.195-1.632.473-3.094 1.564-1.463 1.09-1.778-.837-3.178-.82-1.3.017-2.418.71-3.712-.027-6.948-3.956 1.848-5.97 4.435-7.193 4.789-2.262 3.459-4.215 3.39-4.344-.094-.177-.485-1.108-1.768-2.11-1.71-1.505-5.62-2.53-5.99-4.444-.185-.951-.025-1.989-.865-2.516-1.046-.656-2.895-1.387-2.852-2.593.018-.46.354-.941-.341-1.622-.695-.68-1.01-1.583-.83-2.636.103-.6.196-.854-.265-1.806-.462-.954-1.365-2.592-1.213-4.59.177-2.375 2.846.2 4.308 1.774 3.358 3.613 6.284 7.398 9.397 10.44 3.06 2.987 6.591 5.711 9.97 5.657 2.264-.036 3.17-1.04 4.137-1.575 1.15-.635 2.221-.119 2.733.797.392.7.55 1.399 1.074 1.761.308.206.309.488.345.575-.178-.148-1.012-.854-2.708-.731-2.079.414-3.211 2.945-4.53 5.002-2.605 4.05-7.113 4.084-7.725 4.235-.01.078 1.073.29 2.808-.021 1.692-.288 4.185-1.32 5.727-3.672 1.382-2.231 2.346-4.527 3.858-4.948 1.468-.313 2.538.306 2.604.172a.105.105 0 00.005-.03z" fill="#1F3B87"/><path d="M37.353 22.657c-.891.545-1.673 1.403-2.117 2.734.186-.117.97-1.604 2.793-2.575a6.694 6.694 0 00-.676-.159z" fill="#F47216"/><path d="M17.749 11.816a38.6 38.6 0 016.288-1.285 3.453 3.453 0 01-.167-.677l-.02.002a46.136 46.136 0 00-3.01.408 38.02 38.02 0 00-3.722.824l.63.728zm28.316 1.706c-4.58-2.26-9.64-3.492-14.772-3.817l-.027-.003.26.633.041.003c4.246.284 8.435 1.23 12.28 2.836 6.355 2.66 12.162 7.91 12.273 14.913-.123 7.702-7.098 12.974-13.996 15.616-8.99 3.443-19.823 3.181-28.667-.516C6.549 40.298.234 34.205 1.333 26.493c.652-4.578 3.783-8.142 7.706-10.725-.28-.25-.518-.537-.664-.869-2.646 1.705-4.93 3.859-6.535 6.503C-1.55 26.987.005 33.365 4.38 37.97c7.725 8.13 21.318 9.954 32.085 8.131 9.382-1.587 20.733-7.54 20.894-17.825-.105-6.672-5.401-11.843-11.294-14.753z" fill="#1F3B87"/><path d="M76.833 41.881v.521h-3.889v4.642h-.537V41.88h4.426zm1.767 2.507h3.16c.76 0 1.064-.17 1.064-.966 0-.774-.283-1.02-1.116-1.02H78.6v1.986zm0 2.656h-.535v-5.162h3.48c1.28 0 1.814.431 1.814 1.591 0 1.154-.512 1.437-1.808 1.437H78.6v2.134zm11.355-5.163l-2.216 3.675c-.76 1.257-1.019 1.488-1.876 1.488h-.177v-.52h.185c.566 0 .715-.135.996-.603l-2.624-4.04h.617l2.313 3.622 2.143-3.622h.639zm6.473 0v5.163h-.537v-4.642H91.31v4.642h-.536V41.88h5.654zm7.153.001v5.162h-.536v-4.641h-4.58v4.64h-.537v-5.161h5.653zm5.432 3.347l-1.532-2.975-1.531 2.975h3.063zm-4.611 1.815l2.678-5.162h.819l2.676 5.162h-.625l-.661-1.294h-3.631l-.661 1.294h-.595zm10.552 0h-.535V41.88h.535v2.21h.864l3.264-2.21h.937l-3.645 2.463 3.734 2.7h-.937l-3.332-2.433h-.885v2.433zm10.178-4.701h-2.261c-.967 0-1.375.275-1.375 1.28v1.65c0 .99.372 1.25 1.375 1.25h2.261c1.086 0 1.331-.246 1.331-1.25v-1.65c0-1.02-.304-1.28-1.331-1.28zm.008 4.7h-2.261c-1.398 0-1.92-.446-1.92-1.77v-1.605c0-1.325.463-1.846 1.92-1.846h2.261c1.249 0 1.858.342 1.858 1.846v1.605c0 1.473-.49 1.77-1.858 1.77zm4.171-5.162l2.617 4.404 2.603-4.404h1.145v5.163h-.535v-4.746h-.297l-2.782 4.746h-.275l-2.782-4.746h-.305v4.746h-.535V41.88h1.146zm13.556.001v5.162h-.536v-4.641h-4.581v4.64h-.535v-5.161h5.652zm5.434 3.347l-1.531-2.975-1.533 2.975h3.064zm-4.612 1.815l2.678-5.162h.818l2.677 5.162h-.623l-.663-1.294h-3.63l-.66 1.294h-.597zm7.501 0h-.536V41.88h.536v2.24h4.581v-2.24h.535v5.163h-.535V44.64h-4.581v2.403zm7.113-.402h.044l4.084-4.76h1.033v5.162h-.536v-4.76h-.2l-4.091 4.76h-.869v-5.162h.535v4.76zm11.153-6.18c0 .244-.09 1.233-1.548 1.233h-.602c-1.332 0-1.548-.913-1.548-1.233h.536c0 .193.096.788 1.019.788h.587c.923 0 1.019-.595 1.019-.788h.537zm-3.98 6.18h.045l4.083-4.76h1.033v5.162h-.535v-4.76h-.2l-4.091 4.76h-.87v-5.162h.535v4.76z" fill="#706D6E"/><path d="M100.082 31.502V16.384L91.72 31.502h-5.414l-8.333-15.118v15.118h-5.566V10.93h8.303l8.302 15.148 8.603-15.148h8.032v20.572h-5.565zm22.673-11.662h-6.602c-2.432 0-2.714.663-2.714 4.01 0 3.316.282 3.947 2.714 3.947h6.602c2.303 0 2.558-.63 2.558-3.947 0-3.347-.223-4.01-2.558-4.01zm-.095 11.842h-6.6c-6.286 0-7.675-1.705-7.675-7.832 0-6.284 1.263-7.864 7.675-7.864h6.6c6.441 0 7.674 1.36 7.674 7.864 0 6.285-1.358 7.832-7.674 7.832zm25.372-.188v-6.127h-10.706v6.127h-5.021V16.146h5.021v5.716h10.706v-5.716h5.021v15.348h-5.021z" fill="#1F3B87"/><path d="M169.267 15.241l-4.601 8.458h9.11l-4.509-8.458zm8.645 16.261l-1.884-3.53h-13.677l-1.914 3.53h-6.361L165.13 10.91h8.121l11.052 20.593h-6.391z" fill="#F47216"/><path d="M198.957 19.826h-5.893c-2.162 0-2.507.751-2.507 3.98 0 2.537.187 3.916 2.507 3.916h5.893c2.034 0 2.725-.47 2.725-3.917 0-2.977-.095-3.979-2.725-3.979zm1.941 11.75h-5.891c-1.911 0-3.416-.375-4.231-2.476h-.219v8.869h-4.982v-21.81h4.982l-.125 2.413h.249c.566-2.068 2.226-2.57 4.326-2.57h5.891c3.698 0 5.766 1.568 5.766 5.579v3.478c0 4.637-1.566 6.518-5.766 6.518zm21.771-.074l-4.799-5.493-4.925 5.493h-6.062l7.326-8.24-5.874-7.103h5.81l3.536 4.23 3.695-4.23h5.743l-5.807 6.945 7.45 8.398h-6.093z" fill="#1F3B87"/></svg>