<svg width="167" height="22" fill="none" xmlns="http://www.w3.org/2000/svg"><g clip-path="url(#clip0_240_10340)"><mask id="a" style="mask-type:luminance" maskUnits="userSpaceOnUse" x="0" y="0" width="168" height="21"><path d="M167.5.5H0v20h167.5V.5z" fill="#fff"/></mask><g mask="url(#a)" fill="#F47216"><path d="M18.963 4.35h-10c-2.133 0-2.738.952-2.738 3.055 0 2.133.864 3.055 2.882 3.055h9.856V4.35zm0 9.885h-7.954l-4.784 6.34H0l5.85-6.974c-2.276-.518-4.409-2.94-4.409-5.994C1.441 1.93 4.409.575 8.559.575h15.187v20h-4.783v-6.34zM30.826 6.34v5.1h1.758l4.812-5.1h5.39l-6.658 6.599 7.263 7.637h-5.706l-5.101-6.167h-1.758v6.167h-4.784V6.34h4.784zm19.956-.058h6.657c4.179 0 6.254 2.536 6.254 5.706v3.026c0 3.256-2.162 5.562-6.225 5.562h-6.686c-4.006 0-6.254-2.335-6.254-5.62v-2.968c0-3.141 2.046-5.706 6.254-5.706zm8.127 6.08c0-1.671-.98-2.795-3.084-2.795H52.57c-2.22 0-3.257.922-3.257 2.767v2.334c0 1.787 1.038 2.622 3.257 2.622h3.256c2.104 0 3.084-.749 3.084-2.65v-2.278zm7.133 8.214V6.34h12.017c4.352 0 5.62 1.296 5.62 4.092 0 1.354-.548 2.478-1.874 2.968 1.556.404 2.248 1.556 2.248 3.285 0 2.854-2.017 3.89-5.706 3.89H66.042zm4.784-6.052v3.084h7.031c1.096 0 1.931-.49 1.931-1.528 0-.922-.461-1.556-2.046-1.556h-6.916zm0-5.216v2.565h6.916c1.44 0 1.642-.807 1.642-1.441s-.403-1.124-1.757-1.124h-6.801zM88.202 6.34h16.744v14.236h-4.784V9.625h-7.349v4.986c0 3.948-1.902 5.965-5.475 5.965H85.32V17.29c2.48 0 2.882-.433 2.882-3.343V6.34zm33.107 5.504c0-1.383-.633-2.594-2.68-2.594h-4.409c-1.873 0-2.421 1.21-2.421 2.594h9.51zm4.583 2.651h-14.093v.548c0 1.239.317 2.565 2.277 2.565h5.533c1.153 0 1.7-.577 1.7-1.7h4.583c0 2.507-1.182 4.668-5.995 4.668h-7.003c-4.005 0-5.878-2.334-5.878-5.447v-3.602c0-2.507 1.7-5.245 5.965-5.245h6.801c4.697 0 6.11 2.94 6.11 5.793v2.42zm1.649 6.081V6.339h12.018c4.351 0 5.619 1.297 5.619 4.093 0 1.354-.547 2.478-1.873 2.968 1.556.403 2.248 1.556 2.248 3.285 0 2.853-2.017 3.89-5.706 3.89h-12.306zm4.784-6.052v3.083h7.032c1.095 0 1.931-.49 1.931-1.527 0-.922-.461-1.556-2.046-1.556h-6.917zm0-5.216v2.565h6.917c1.441 0 1.642-.807 1.642-1.441s-.403-1.124-1.758-1.124h-6.801zm21.96-3.026h6.657c4.179 0 6.254 2.536 6.254 5.706v3.026c0 3.256-2.162 5.562-6.225 5.562h-6.686c-4.006 0-6.254-2.334-6.254-5.62v-2.968c0-3.141 2.046-5.706 6.254-5.706zm8.127 6.08c0-1.67-.98-2.795-3.084-2.795h-3.256c-2.22 0-3.257.922-3.257 2.767v2.334c0 1.787 1.037 2.623 3.257 2.623h3.256c2.104 0 3.084-.75 3.084-2.652v-2.276z"/></g></g><defs><clipPath id="clip0_240_10340"><path fill="#fff" transform="translate(0 .5)" d="M0 0h167v21H0z"/></clipPath></defs></svg>