<svg width="215" height="63" fill="none" xmlns="http://www.w3.org/2000/svg"><rect width="215" height="57" rx="8" fill="#1D3670"/><mask id="a" style="mask-type:luminance" maskUnits="userSpaceOnUse" x="24" y="16" width="167" height="20"><path d="M191 16H24v20h167V16z" fill="#fff"/></mask><g mask="url(#a)" fill="#fff"><path d="M42.906 19.85h-9.97c-2.126 0-2.73.95-2.73 3.054 0 2.133.862 3.055 2.873 3.055h9.827v-6.11zm0 9.884h-7.93l-4.77 6.34H24l5.833-6.974c-2.27-.519-4.396-2.94-4.396-5.994 0-5.677 2.96-7.032 7.096-7.032h15.142v20h-4.769v-6.34zm11.828-7.894v5.1h1.753l4.798-5.1h5.373l-6.637 6.6 7.24 7.636h-5.689l-5.085-6.167h-1.753v6.167h-4.77V21.84h4.77zm19.896-.059h6.638c4.166 0 6.234 2.536 6.234 5.706v3.026c0 3.257-2.154 5.562-6.206 5.562H74.63c-3.993 0-6.234-2.334-6.234-5.62v-2.968c0-3.14 2.04-5.706 6.234-5.706zm8.103 6.08c0-1.67-.977-2.794-3.074-2.794h-3.247c-2.213 0-3.247.922-3.247 2.766v2.334c0 1.787 1.034 2.623 3.247 2.623h3.247c2.097 0 3.074-.75 3.074-2.651v-2.277zm7.112 8.215V21.84h11.981c4.339 0 5.603 1.297 5.603 4.092 0 1.355-.547 2.479-1.868 2.968 1.551.404 2.241 1.557 2.241 3.286 0 2.853-2.011 3.89-5.689 3.89H89.845zm4.77-6.052v3.084h7.009c1.093 0 1.926-.49 1.926-1.527 0-.923-.46-1.557-2.04-1.557h-6.896zm0-5.216v2.565h6.895c1.436 0 1.637-.807 1.637-1.44 0-.635-.402-1.125-1.752-1.125h-6.78zm17.324-2.968h16.693v14.236h-4.769v-10.95h-7.327v4.985c0 3.948-1.897 5.965-5.459 5.965h-2.012v-3.285c2.472 0 2.874-.432 2.874-3.343V21.84zm33.008 5.503c0-1.383-.631-2.593-2.672-2.593h-4.396c-1.867 0-2.413 1.21-2.413 2.593h9.481zm4.569 2.651h-14.05v.548c0 1.24.316 2.565 2.27 2.565h5.516c1.15 0 1.695-.576 1.695-1.7h4.569c0 2.507-1.178 4.668-5.976 4.668h-6.983c-3.993 0-5.861-2.334-5.861-5.447v-3.602c0-2.507 1.695-5.245 5.948-5.245h6.78c4.684 0 6.092 2.94 6.092 5.793v2.42zm1.645 6.082V21.84h11.981c4.339 0 5.603 1.297 5.603 4.092 0 1.355-.546 2.479-1.868 2.968 1.552.404 2.242 1.557 2.242 3.286 0 2.853-2.012 3.89-5.689 3.89h-12.269zm4.769-6.052v3.084h7.011c1.092 0 1.925-.49 1.925-1.527 0-.923-.459-1.557-2.04-1.557h-6.896zm0-5.216v2.565h6.896c1.437 0 1.638-.807 1.638-1.44 0-.635-.403-1.125-1.753-1.125h-6.781zm21.894-3.027h6.637c4.167 0 6.236 2.536 6.236 5.706v3.026c0 3.257-2.155 5.562-6.207 5.562h-6.666c-3.993 0-6.235-2.334-6.235-5.62v-2.968c0-3.14 2.04-5.706 6.235-5.706zm8.103 6.08c0-1.67-.977-2.794-3.074-2.794h-3.247c-2.213 0-3.247.922-3.247 2.766v2.334c0 1.787 1.034 2.623 3.247 2.623h3.247c2.097 0 3.074-.75 3.074-2.651v-2.277z"/></g><path d="M107.5 63l6.5-6h-13l6.5 6z" fill="#1D3670"/></svg>