<svg width="114" height="40" fill="none" xmlns="http://www.w3.org/2000/svg"><path d="M42.5 28.746v-18h12.038v2.825h-9.025v3.875h4.425c.166 0 .387.008.662.025.283.008.542.025.775.05 1.008.117 1.85.438 2.525.963a4.882 4.882 0 011.538 1.987c.35.8.524 1.675.524 2.625s-.17 1.83-.512 2.638a4.882 4.882 0 01-1.538 1.987c-.675.517-1.52.833-2.537.95-.233.025-.487.046-.763.063-.275.008-.5.012-.675.012H42.5zm3.013-2.825h4.3a6.959 6.959 0 001.137-.1c.75-.158 1.267-.508 1.55-1.05.283-.542.425-1.1.425-1.675 0-.583-.142-1.142-.425-1.675-.283-.542-.8-.892-1.55-1.05a2.998 2.998 0 00-.575-.075 7.107 7.107 0 00-.563-.025h-4.3v5.65zm16.729 3.2c-.975 0-1.8-.183-2.475-.55-.675-.375-1.188-.87-1.538-1.487a4.133 4.133 0 01-.512-2.038c0-.65.108-1.233.325-1.75a3.45 3.45 0 011-1.35c.45-.383 1.033-.696 1.75-.937a16.6 16.6 0 011.9-.475 44.38 44.38 0 012.375-.388 447.92 447.92 0 002.687-.4l-1.075.613c.009-.934-.2-1.621-.625-2.063-.425-.442-1.141-.662-2.15-.662-.608 0-1.196.141-1.762.425-.567.283-.963.77-1.188 1.462l-2.75-.862c.334-1.142.967-2.059 1.9-2.75.942-.692 2.209-1.038 3.8-1.038 1.2 0 2.254.196 3.163.588a3.927 3.927 0 012.037 1.925c.242.475.388.962.438 1.462.05.492.075 1.03.075 1.613v8.287h-2.638v-2.925l.438.475c-.609.975-1.321 1.692-2.138 2.15-.808.45-1.82.675-3.037.675zm.6-2.4c.683 0 1.266-.12 1.75-.362.483-.242.866-.538 1.15-.888.291-.35.487-.68.587-.987.159-.384.246-.821.263-1.313.025-.5.037-.904.037-1.212l.925.275c-.908.141-1.687.266-2.337.375-.65.108-1.209.212-1.675.312-.467.092-.88.196-1.238.313-.35.125-.646.27-.887.437-.242.167-.43.358-.563.575a1.5 1.5 0 00-.187.763c0 .333.083.629.25.887.166.25.408.45.725.6.325.15.725.225 1.2.225zm14.517 2.4c-1.284 0-2.455-.27-3.513-.812-1.058-.542-1.892-1.284-2.5-2.225l2.375-1.588a5.504 5.504 0 001.612 1.338c.592.308 1.25.462 1.975.462.759 0 1.355-.167 1.788-.5.433-.333.65-.78.65-1.337 0-.492-.146-.838-.438-1.038-.291-.208-.675-.333-1.15-.375a17.48 17.48 0 00-1.525-.062h-1v-2.388h.988c.758 0 1.392-.087 1.9-.262.517-.175.775-.563.775-1.163 0-.542-.2-.925-.6-1.15-.4-.233-.867-.35-1.4-.35-.65 0-1.292.138-1.925.413-.633.275-1.2.608-1.7 1l-1.7-2.05a8.863 8.863 0 012.513-1.575 7.518 7.518 0 012.962-.588c.867 0 1.675.15 2.425.45.758.3 1.367.75 1.825 1.35.467.6.7 1.342.7 2.225 0 .633-.138 1.23-.412 1.788-.267.558-.696 1.087-1.288 1.587l-.037-.975c.458.192.845.458 1.162.8.325.342.57.742.737 1.2.175.458.263.946.263 1.463 0 .941-.25 1.737-.75 2.387-.5.65-1.167 1.142-2 1.475-.825.333-1.73.5-2.712.5zm19.912-13.875v13.5h-2.887v-8.812l-6.425 8.812h-2.413v-13.5h2.888v8.588l6.45-8.588h2.387zm9.373 13.875c-1.392 0-2.58-.308-3.563-.925a6.16 6.16 0 01-2.262-2.55c-.517-1.075-.78-2.292-.788-3.65.008-1.383.279-2.608.813-3.675a6.125 6.125 0 012.3-2.525c.991-.617 2.17-.925 3.537-.925 1.533 0 2.829.388 3.888 1.163 1.066.766 1.762 1.816 2.087 3.15l-3 .812c-.233-.725-.621-1.287-1.162-1.687a2.995 2.995 0 00-1.85-.613c-.784 0-1.43.188-1.938.563-.508.366-.883.875-1.125 1.525-.242.65-.362 1.387-.362 2.212 0 1.283.287 2.32.862 3.113.575.791 1.429 1.187 2.563 1.187.8 0 1.429-.183 1.887-.55.467-.367.817-.896 1.05-1.587l3.075.687c-.417 1.375-1.146 2.433-2.187 3.175-1.042.733-2.317 1.1-3.825 1.1z" fill="#00092A"/><path d="M15.437 9.903v5.875l-5.082-2.942V6.961l5.082 2.942zm-5.08 6.087V34.2l5.081.717V18.932l-5.08-2.941z" fill="#1A48D3"/><path d="M10.356 12.836v21.91l5.082.717V15.778l-5.082-2.942z" fill="#1A48D3"/><path d="M.984 30.613a1.234 1.234 0 01.009-2.132l2.609-1.506c.385-.222.859-.22 1.242.005l7.697 4.527c.383.225.858.227 1.242.005l11.416-6.59a1.234 1.234 0 011.85 1.067v3.027c0 .44-.235.848-.616 1.068L13.76 37.401c-.385.222-.86.22-1.242-.005L.984 30.613z" fill="#36F"/><path d="M1.011 22.497a1.234 1.234 0 01.009-2.131l2.609-1.507c.385-.222.859-.22 1.242.005l7.697 4.527c.383.226.857.227 1.242.005l11.415-6.59a1.234 1.234 0 011.85 1.068V20.9c0 .44-.234.847-.616 1.068l-12.672 7.316c-.385.222-.86.22-1.243-.005L1.011 22.497z" fill="#36F"/><path d="M1.036 14.381a1.233 1.233 0 01.009-2.131l2.609-1.507c.385-.222.86-.22 1.242.005l7.697 4.527a1.23 1.23 0 001.242.005l11.417-6.59a1.233 1.233 0 011.85 1.067v3.027c0 .44-.235.848-.617 1.068L13.812 21.17c-.385.223-.86.22-1.243-.005L1.036 14.381z" fill="#36F"/><path d="M10.353 6.965l5.041 2.964 3.835-2.214-2.544-4.406-6.332 3.656z" fill="#36F"/><path d="M15.089 4.23a1.233 1.233 0 00-.009 2.132l9.736 5.726a1.233 1.233 0 001.688-.438l.428-.727c.111-.19.17-.405.17-.625V8.235c0-.437-.231-.842-.608-1.064L18.94 2.73a1.234 1.234 0 00-1.242-.005l-2.61 1.506zm11.983 13.625l-.023 10.81-5.058-.475v-8.342l5.081-1.993z" fill="#36F"/></svg>