<svg width="138" height="28" fill="none" xmlns="http://www.w3.org/2000/svg"><path d="M132.583 5.423l-4.685 5.228V5.423h-3.39v13.198h3.39v-5.555l5.014 5.555h4.379l-6.168-6.915 5.721-6.283h-4.261zm-14.053 4.923h-4.685V5.423h-3.39v13.198h3.39v-5.204h4.685v5.204h3.39V5.423h-3.39v4.923z" fill="#EF3124"/><mask id="a" style="mask-type:luminance" maskUnits="userSpaceOnUse" x="0" y="0" width="138" height="28"><path d="M0 0h137.29v28H0V0z" fill="#fff"/></mask><g mask="url(#a)" fill="#EF3124"><path d="M20.128 12.573c-.081 2.46-.4 2.954-1.79 2.954v3.094h.519c3.465 0 4.298-1.782 4.425-5.743l.142-4.384h3.248v10.127h3.39V5.424h-9.699l-.235 7.15zm18.102 3.141h-2.19v-3.352h2.19c1.177 0 1.883.516 1.883 1.618 0 1.195-.683 1.734-1.883 1.734zm.259-6.282H36.04V5.423h-3.39v13.198h5.886c3.696 0 5.014-2.39 5.014-4.641 0-2.907-1.836-4.548-5.061-4.548zm16.101 6.301V8.278c1.884.258 3.06 1.665 3.06 3.727 0 2.063-1.176 3.47-3.06 3.728zm-3.39 0c-1.883-.258-3.06-1.665-3.06-3.728 0-2.062 1.177-3.469 3.06-3.727v7.455zm3.39-10.62V.215H51.2v4.9c-3.884.328-6.497 3.07-6.497 6.891 0 3.845 2.613 6.588 6.498 6.916v4.97h3.39v-4.97c3.884-.305 6.497-3.071 6.497-6.916 0-3.844-2.613-6.587-6.497-6.891zm15.82 8.585c0 1.524-1.082 2.391-2.495 2.391-1.224 0-2.19-.445-2.19-1.758 0-1.29 1.06-1.5 1.978-1.5h2.707v.867zm3.39.868v-4.43c0-3.236-2.071-5.276-5.555-5.276-3.602 0-5.51 2.157-5.674 4.408h3.437c.118-.493.636-1.336 2.237-1.336 1.318 0 2.165.61 2.165 2.203h-3.366c-3.013 0-4.803 1.57-4.803 4.196 0 2.743 1.957 4.618 4.78 4.618 2.069 0 3.217-.974 3.719-1.711.447.89 1.436 1.383 2.73 1.383h1.178v-3.047c-.612 0-.848-.282-.848-1.008zm14.36.727h-3.625V10.51h3.626c1.883 0 2.942.868 2.942 2.391 0 1.571-1.06 2.392-2.942 2.392zm.166-7.994h-3.79V3.57h8.78V.22H80.981v18.402h7.345c4.072 0 6.403-2.016 6.403-5.72 0-3.492-2.331-5.602-6.403-5.602zm15.984 6.399c0 1.524-1.083 2.391-2.496 2.391-1.224 0-2.19-.445-2.19-1.758 0-1.29 1.06-1.5 1.978-1.5h2.708v.867zm3.389.868v-4.43c0-3.236-2.071-5.276-5.555-5.276-3.602 0-5.509 2.157-5.674 4.408h3.437c.118-.493.636-1.336 2.237-1.336 1.318 0 2.166.61 2.166 2.203h-3.367c-3.013 0-4.802 1.57-4.802 4.196 0 2.743 1.957 4.618 4.779 4.618 2.069 0 3.217-.974 3.719-1.711.447.89 1.436 1.383 2.731 1.383h1.177v-3.047c-.612 0-.848-.282-.848-1.008zM18.127 28H0v-3.75h18.127V28zM6.474 11.659l2.543-7.525h.094l2.401 7.525H6.474zm5.885-8.914C11.842 1.21 11.246-.002 9.205-.002S6.53 1.205 5.985 2.745L.378 18.621h3.72l1.294-3.774h7.157l1.2 3.774h3.955L12.36 2.745z"/></g></svg>