<svg width="74" height="28" fill="none" xmlns="http://www.w3.org/2000/svg"><path d="M49.532 6.71H30.68L32.244.992h18.853l-1.565 5.72zm-12.774 9.676H46.89l1.565-5.72H29.602l-4.47 16.338h8.721l2.905-10.618z" fill="#CD2A34"/><path fill-rule="evenodd" clip-rule="evenodd" d="M58.139 21.09c-.23-.131-.371-.306-.429-.527a.703.703 0 01-.019-.201.898.898 0 01.03-.19L61.138 7.69c.1-.364.272-.612.52-.752.249-.14.675-.213 1.287-.213h9.415l1.565-5.72H60.722c-2.405 0-4.082.29-5.06.838-.976.549-1.653 1.524-2.044 2.956l-4.872 17.8a3.577 3.577 0 00-.128.779 2.79 2.79 0 00.075.793c.226.868.782 1.554 1.684 2.073.887.503 2 .76 3.323.76h13.82l1.565-5.719H58.984c-.337 0-.62-.066-.845-.194zM6.04 1.004L.131 22.598a3.579 3.579 0 00-.128.779c-.015.274.015.533.075.793.226.868.782 1.554 1.684 2.073.887.503 2 .76 3.323.76l9.83-.001c2.405 0 4.082-.29 5.06-.839.976-.548 1.653-1.523 2.044-2.955l6.076-22.204h-8.721L14.09 20.319c-.1.364-.272.612-.52.752-.249.14-.675.213-1.287.213H10.78c-.336 0-.62-.066-.845-.194-.23-.132-.37-.306-.428-.527a.715.715 0 01-.02-.202.918.918 0 01.03-.19L14.76 1.005H6.04z" fill="#CD2A34"/></svg>