<svg width="24" height="24" fill="none" xmlns="http://www.w3.org/2000/svg"><path fill-rule="evenodd" clip-rule="evenodd" d="M18 14.984v1.807a1.2 1.2 0 01-.393.892 1.2 1.2 0 01-.923.312 11.955 11.955 0 01-5.207-1.849 11.758 11.758 0 01-3.62-3.613 11.901 11.901 0 01-1.852-5.22A1.208 1.208 0 017.205 6h1.81a1.207 1.207 0 011.207 1.036c.079.578.218 1.146.423 1.692.163.44.06.936-.272 1.27l-.766.765a9.645 9.645 0 003.62 3.613l.766-.765a1.21 1.21 0 011.273-.27 7.784 7.784 0 001.696.42A1.2 1.2 0 0118 14.985z" fill="#fff"/></svg>