<svg width="48" height="48" fill="none" xmlns="http://www.w3.org/2000/svg"><rect width="48" height="48" rx="24" fill="#1D3670"/><path fill-rule="evenodd" clip-rule="evenodd" d="M27 20.4h-6V24l-4.2 1.8v10.213L31.138 36V25.787L27.001 24v-3.6zm-3 13.2a1.2 1.2 0 00-1.2 1.2V36h2.4v-1.2a1.2 1.2 0 00-1.2-1.2zM19.2 27a.6.6 0 111.2 0v1.8h-1.2V27zm3-.6a.6.6 0 00-.6.6v1.8h1.2V27a.6.6 0 00-.6-.6zm6.6.6a.6.6 0 10-1.2 0v1.8h1.2V27zm-3-.6a.6.6 0 01.6.6v1.8h-1.2V27a.6.6 0 01.6-.6z" fill="#fff"/><path d="M24.001 10.8s3.497 2.438 3.926 4.278c.267 1.143-.926 4.122-.926 4.122h-6s-1.193-2.98-.926-4.122c.43-1.84 3.926-4.278 3.926-4.278z" fill="#fff"/></svg>