<svg width="48" height="48" fill="none" xmlns="http://www.w3.org/2000/svg"><rect width="48" height="48" rx="24" fill="#1D3670"/><path d="M20.4 18.572c-.131-.928.472-1.772 1.265-1.772h4.67c.792 0 1.395.844 1.265 1.772l-.855 6.086c-.104.733-.639 1.271-1.266 1.271H22.52c-.627 0-1.162-.538-1.265-1.271l-.856-6.086zm17.328 8.799c.154-.502.056-1.064-.254-1.452l-1.259-1.577c-.593-.743-1.624-.593-2.049.298l-.32.672c-.39.818-.066 1.856.679 2.178l1.679.725c.617.266 1.3-.111 1.524-.844zm-27.456 0c-.154-.502-.056-1.064.254-1.452l1.26-1.577c.593-.743 1.623-.593 2.048.298l.32.672c.39.818.067 1.856-.678 2.178l-1.68.725c-.617.266-1.3-.111-1.524-.844zm18.909-8.543c.28-.853 1.128.143 1.806.578l1.477.949c.447.287 1.682.857 1.799 1.45.02.099-.019.198-.063.29l-1.524 3.139a1.4 1.4 0 00-.096.288c-.177.743-.803 1.221-1.457 1.084l-2.25-.47c-.798-.167-1.267-1.157-.973-2.052l1.281-5.256zm-10.363 0c-.28-.853-1.128.143-1.806.578l-1.477.949c-.447.287-1.681.857-1.798 1.45-.02.099.018.198.062.29l1.524 3.139c.045.091.073.19.096.288.177.743.803 1.221 1.458 1.084l2.25-.47c.797-.167 1.266-1.157.972-2.052l-1.28-5.256z" fill="#fff"/><path d="M20.4 18.572c-.131-.928.472-1.772 1.265-1.772h4.67c.792 0 1.395.844 1.265 1.772l-.855 6.086c-.104.733-.639 1.271-1.266 1.271H22.52c-.627 0-1.162-.538-1.265-1.271l-.856-6.086zm17.328 8.799c.154-.502.056-1.064-.254-1.452l-1.259-1.577c-.593-.743-1.624-.593-2.049.298l-.32.672c-.39.818-.066 1.856.679 2.178l1.679.725c.617.266 1.3-.111 1.524-.844zm-27.456 0c-.154-.502-.056-1.064.254-1.452l1.26-1.577c.593-.743 1.623-.593 2.048.298l.32.672c.39.818.067 1.856-.678 2.178l-1.68.725c-.617.266-1.3-.111-1.524-.844zm18.909-8.543c.28-.853 1.128.143 1.806.578l1.477.949c.447.287 1.682.857 1.799 1.45.02.099-.019.198-.063.29l-1.524 3.139a1.4 1.4 0 00-.096.288c-.177.743-.803 1.221-1.457 1.084l-2.25-.47c-.798-.167-1.267-1.157-.973-2.052l1.281-5.256zm-10.363 0c-.28-.853-1.128.143-1.806.578l-1.477.949c-.447.287-1.681.857-1.798 1.45-.02.099.018.198.062.29l1.524 3.139c.045.091.073.19.096.288.177.743.803 1.221 1.458 1.084l2.25-.47c.797-.167 1.266-1.157.972-2.052l-1.28-5.256z" stroke="#fff" stroke-width=".3"/></svg>