<svg width="48" height="48" fill="none" xmlns="http://www.w3.org/2000/svg"><rect width="48" height="48" rx="24" fill="#1D3670"/><rect width="1.2" height="7.068" rx=".6" transform="matrix(.86874 .49526 -.50475 .86326 20.4 15.6)" fill="#fff"/><rect width="1.2" height="7.068" rx=".6" transform="matrix(-.86874 .49526 .50475 .86326 27.6 15.6)" fill="#fff"/><path fill-rule="evenodd" clip-rule="evenodd" d="M14.735 21.657A1 1 0 0115.7 20.4h16.644a1 1 0 01.975 1.224l-2.294 10a1 1 0 01-.975.776H18.36a1 1 0 01-.967-.743l-2.658-10zM25.799 24a.6.6 0 110 1.2h-3.6a.6.6 0 010-1.2h3.6zm-.6 4.2a.6.6 0 00-.6-.6h-1.2a.6.6 0 000 1.2h1.2a.6.6 0 00.6-.6z" fill="#fff"/></svg>