<svg width="48" height="48" fill="none" xmlns="http://www.w3.org/2000/svg"><rect width="48" height="48" rx="24" fill="#1D3670"/><path d="M21.407 32.018c-.529-.529-.505-1.41.054-1.97l1.012-1.011c.558-.559 1.44-.583 1.97-.054l2.873 2.875c.53.529.506 1.41-.053 1.97l-1.012 1.01c-.559.56-1.44.584-1.97.054l-2.874-2.874zm8.599-8.598c-.529-.53-.505-1.412.054-1.97l1.011-1.012c.56-.559 1.44-.583 1.97-.054l2.874 2.875c.53.529.505 1.41-.053 1.97l-1.012 1.01c-.559.56-1.44.584-1.97.055l-2.874-2.875z" fill="#fff"/><path d="M24.415 29.968l6.576-6.576 1.916 1.917-6.575 6.575-1.917-1.916zM12.551 19.93c-.304-.684.034-1.498.756-1.82l1.307-.582c.722-.321 1.554-.027 1.858.656l1.653 3.714c.305.683-.034 1.498-.756 1.82l-1.306.581c-.722.322-1.554.028-1.859-.656l-1.653-3.713zm11.109-4.946c-.304-.684.035-1.499.756-1.82l1.307-.582c.722-.321 1.554-.028 1.858.656l1.654 3.713c.304.684-.034 1.499-.756 1.82l-1.307.582c-.722.321-1.554.028-1.858-.656l-1.654-3.713z" fill="#fff"/><path d="M16.094 19.094l8.495-3.782 1.103 2.475-8.496 3.783-1.102-2.476z" fill="#fff"/></svg>